<svg viewBox="0 0 1513 400" xmlns="http://www.w3.org/2000/svg"><g><g><g><g><g><line x1="51.53200149536133" y1="376.8999996185303" x2="46.53200149536133" y2="376.8999996185303" style="visibility: inherit;" fill="rgb(0, 0, 0)" stroke="rgb(204, 204, 204)" stroke-width="1px"></line><line x1="51.53200149536133" y1="339.20999965667727" x2="46.53200149536133" y2="339.20999965667727" style="visibility: inherit;" fill="rgb(0, 0, 0)" stroke="rgb(204, 204, 204)" stroke-width="1px"></line><line x1="51.53200149536133" y1="301.5199996948242" x2="46.53200149536133" y2="301.5199996948242" style="visibility: inherit;" fill="rgb(0, 0, 0)" stroke="rgb(204, 204, 204)" stroke-width="1px"></line><line x1="51.53200149536133" y1="263.82999973297126" x2="46.53200149536133" y2="263.82999973297126" style="visibility: inherit;" fill="rgb(0, 0, 0)" stroke="rgb(204, 204, 204)" stroke-width="1px"></line><line x1="51.53200149536133" y1="226.1399997711182" x2="46.53200149536133" y2="226.1399997711182" style="visibility: inherit;" fill="rgb(0, 0, 0)" stroke="rgb(204, 204, 204)" stroke-width="1px"></line><line x1="51.53200149536133" y1="188.44999980926514" x2="46.53200149536133" y2="188.44999980926514" style="visibility: inherit;" fill="rgb(0, 0, 0)" stroke="rgb(204, 204, 204)" stroke-width="1px"></line><line x1="51.53200149536133" y1="150.75999984741216" x2="46.53200149536133" y2="150.75999984741216" style="visibility: inherit;" fill="rgb(0, 0, 0)" stroke="rgb(204, 204, 204)" stroke-width="1px"></line><line x1="51.53200149536133" y1="113.0699998855591" x2="46.53200149536133" y2="113.0699998855591" style="visibility: inherit;" fill="rgb(0, 0, 0)" stroke="rgb(204, 204, 204)" stroke-width="1px"></line><line x1="51.53200149536133" y1="75.37999992370612" x2="46.53200149536133" y2="75.37999992370612" style="visibility: inherit;" fill="rgb(0, 0, 0)" stroke="rgb(204, 204, 204)" stroke-width="1px"></line><line x1="51.53200149536133" y1="37.68999996185306" x2="46.53200149536133" y2="37.68999996185306" style="visibility: inherit;" fill="rgb(0, 0, 0)" stroke="rgb(204, 204, 204)" stroke-width="1px"></line><line x1="51.53200149536133" y1="0" x2="46.53200149536133" y2="0" style="visibility: inherit;" fill="rgb(0, 0, 0)" stroke="rgb(204, 204, 204)" stroke-width="1px"></line></g><g transform="translate(41.53200149536133, 0)"><text style="text-anchor: end; visibility: hidden; font-family: Roboto, sans-serif; font-size: 12px; font-weight: 200;" x="0" y="376.8999996185303" dx="0em" dy="0.3em" fill="rgb(33, 33, 33)" stroke="none" stroke-width="1px">0.55</text><text style="text-anchor: end; visibility: inherit; font-family: Roboto, sans-serif; font-size: 12px; font-weight: 200;" x="0" y="339.20999965667727" dx="0em" dy="0.3em" fill="rgb(33, 33, 33)" stroke="none" stroke-width="1px">0.6</text><text style="text-anchor: end; visibility: inherit; font-family: Roboto, sans-serif; font-size: 12px; font-weight: 200;" x="0" y="301.5199996948242" dx="0em" dy="0.3em" fill="rgb(33, 33, 33)" stroke="none" stroke-width="1px">0.65</text><text style="text-anchor: end; visibility: inherit; font-family: Roboto, sans-serif; font-size: 12px; font-weight: 200;" x="0" y="263.82999973297126" dx="0em" dy="0.3em" fill="rgb(33, 33, 33)" stroke="none" stroke-width="1px">0.7</text><text style="text-anchor: end; visibility: inherit; font-family: Roboto, sans-serif; font-size: 12px; font-weight: 200;" x="0" y="226.1399997711182" dx="0em" dy="0.3em" fill="rgb(33, 33, 33)" stroke="none" stroke-width="1px">0.75</text><text style="text-anchor: end; visibility: inherit; font-family: Roboto, sans-serif; font-size: 12px; font-weight: 200;" x="0" y="188.44999980926514" dx="0em" dy="0.3em" fill="rgb(33, 33, 33)" stroke="none" stroke-width="1px">0.8</text><text style="text-anchor: end; visibility: inherit; font-family: Roboto, sans-serif; font-size: 12px; font-weight: 200;" x="0" y="150.75999984741216" dx="0em" dy="0.3em" fill="rgb(33, 33, 33)" stroke="none" stroke-width="1px">0.85</text><text style="text-anchor: end; visibility: inherit; font-family: Roboto, sans-serif; font-size: 12px; font-weight: 200;" x="0" y="113.0699998855591" dx="0em" dy="0.3em" fill="rgb(33, 33, 33)" stroke="none" stroke-width="1px">0.9</text><text style="text-anchor: end; visibility: inherit; font-family: Roboto, sans-serif; font-size: 12px; font-weight: 200;" x="0" y="75.37999992370612" dx="0em" dy="0.3em" fill="rgb(33, 33, 33)" stroke="none" stroke-width="1px">0.95</text><text style="text-anchor: end; visibility: inherit; font-family: Roboto, sans-serif; font-size: 12px; font-weight: 200;" x="0" y="37.68999996185306" dx="0em" dy="0.3em" fill="rgb(33, 33, 33)" stroke="none" stroke-width="1px">1</text><text style="text-anchor: end; visibility: hidden; font-family: Roboto, sans-serif; font-size: 12px; font-weight: 200;" x="0" y="0" dx="0em" dy="0.3em" fill="rgb(33, 33, 33)" stroke="none" stroke-width="1px">1.05</text></g><line x1="51.53200149536133" y1="0" x2="51.53200149536133" y2="376.8999996185303" fill="rgb(0, 0, 0)" stroke="rgb(204, 204, 204)" stroke-width="1px"></line></g></g><g transform="translate(51, 0)" clip-path="url(#clip_0)"><clipPath id="clip_0"><rect width="1461" height="376"></rect></clipPath><g><g><g><line x1="0" y1="0" x2="0" y2="376.8999996185303" fill="rgb(0, 0, 0)" stroke="rgb(66, 66, 66)" stroke-width="1px" opacity="0.25"></line><line x1="208.7811426435198" y1="0" x2="208.7811426435198" y2="376.8999996185303" fill="rgb(0, 0, 0)" stroke="rgb(66, 66, 66)" stroke-width="1px" opacity="0.25"></line><line x1="417.5622852870396" y1="0" x2="417.5622852870396" y2="376.8999996185303" fill="rgb(0, 0, 0)" stroke="rgb(66, 66, 66)" stroke-width="1px" opacity="0.25"></line><line x1="626.3434279305594" y1="0" x2="626.3434279305594" y2="376.8999996185303" fill="rgb(0, 0, 0)" stroke="rgb(66, 66, 66)" stroke-width="1px" opacity="0.25"></line><line x1="835.1245705740791" y1="0" x2="835.1245705740791" y2="376.8999996185303" fill="rgb(0, 0, 0)" stroke="rgb(66, 66, 66)" stroke-width="1px" opacity="0.25"></line><line x1="1043.905713217599" y1="0" x2="1043.905713217599" y2="376.8999996185303" fill="rgb(0, 0, 0)" stroke="rgb(66, 66, 66)" stroke-width="1px" opacity="0.25"></line><line x1="1252.6868558611188" y1="0" x2="1252.6868558611188" y2="376.8999996185303" fill="rgb(0, 0, 0)" stroke="rgb(66, 66, 66)" stroke-width="1px" opacity="0.25"></line><line x1="1461.4679985046387" y1="0" x2="1461.4679985046387" y2="376.8999996185303" fill="rgb(0, 0, 0)" stroke="rgb(66, 66, 66)" stroke-width="1px" opacity="0.25"></line></g><g><line x1="0" y1="376.8999996185303" x2="1461.4679985046387" y2="376.8999996185303" fill="rgb(0, 0, 0)" stroke="rgb(66, 66, 66)" stroke-width="1px" opacity="0.25"></line><line x1="0" y1="339.20999965667727" x2="1461.4679985046387" y2="339.20999965667727" fill="rgb(0, 0, 0)" stroke="rgb(66, 66, 66)" stroke-width="1px" opacity="0.25"></line><line x1="0" y1="301.5199996948242" x2="1461.4679985046387" y2="301.5199996948242" fill="rgb(0, 0, 0)" stroke="rgb(66, 66, 66)" stroke-width="1px" opacity="0.25"></line><line x1="0" y1="263.82999973297126" x2="1461.4679985046387" y2="263.82999973297126" fill="rgb(0, 0, 0)" stroke="rgb(66, 66, 66)" stroke-width="1px" opacity="0.25"></line><line x1="0" y1="226.1399997711182" x2="1461.4679985046387" y2="226.1399997711182" fill="rgb(0, 0, 0)" stroke="rgb(66, 66, 66)" stroke-width="1px" opacity="0.25"></line><line x1="0" y1="188.44999980926514" x2="1461.4679985046387" y2="188.44999980926514" fill="rgb(0, 0, 0)" stroke="rgb(66, 66, 66)" stroke-width="1px" opacity="0.25"></line><line x1="0" y1="150.75999984741216" x2="1461.4679985046387" y2="150.75999984741216" fill="rgb(0, 0, 0)" stroke="rgb(66, 66, 66)" stroke-width="1px" opacity="0.25"></line><line x1="0" y1="113.0699998855591" x2="1461.4679985046387" y2="113.0699998855591" fill="rgb(0, 0, 0)" stroke="rgb(66, 66, 66)" stroke-width="1px" opacity="0.25"></line><line x1="0" y1="75.37999992370612" x2="1461.4679985046387" y2="75.37999992370612" fill="rgb(0, 0, 0)" stroke="rgb(66, 66, 66)" stroke-width="1px" opacity="0.25"></line><line x1="0" y1="37.68999996185306" x2="1461.4679985046387" y2="37.68999996185306" fill="rgb(0, 0, 0)" stroke="rgb(66, 66, 66)" stroke-width="1px" opacity="0.25"></line><line x1="0" y1="0" x2="1461.4679985046387" y2="0" fill="rgb(0, 0, 0)" stroke="rgb(66, 66, 66)" stroke-width="1px" opacity="0.25"></line></g></g></g><g><g><line x1="0" y1="791.4899991989136" x2="1461.4679985046387" y2="791.4899991989136" fill="rgb(0, 0, 0)" stroke="rgb(153, 153, 153)" stroke-width="1.5px"></line></g></g><g><g><line x1="208.7811426435198" y1="0" x2="208.7811426435198" y2="376.8999996185303" fill="rgb(0, 0, 0)" stroke="rgb(153, 153, 153)" stroke-width="1.5px"></line></g></g><g><g><g><g><g><path style="fill: none;" stroke="rgb(187, 187, 187)" stroke-width="2px" d="M223.8133849138532,453.9017451958883L231.32950604901995,343.81908416057155L238.84562718418667,268.0343091343479L246.36174831935338,218.64353771333361L253.8778694545201,183.5588830347891L261.3939905896868,158.0561855088609L268.9101117248535,138.34665096994019L276.4262328600202,126.50070246087805L283.9423539951869,117.96151573462525L291.45847513035363,109.39050217074697L298.97459626552035,101.0903395844189L306.49071740068706,96.3381984888848L314.0068385358538,90.32243819650392L321.5229596710205,88.33474197614655L329.0390808061872,85.15458810932898L336.5552019413539,83.02597805798219L344.0713230765206,81.96980369323161L351.58744421168734,80.0110527571983L359.10356534685405,76.33294156410551L366.61968648202077,75.009497489503L374.1358076171875,72.0070263174508L381.6519287523542,70.94169508945104L389.1680498875209,70.74418052611018L396.6841710226876,69.44785763954752L404.2002921578544,68.00754511417428L411.71641329302105,68.24755843811965L419.2325344281878,65.81510054769882L426.7486555633545,66.34318541818533L434.26477669852125,64.96693057414268L441.7808978336879,64.95092394192612L449.2970189688547,64.79409339403006L456.81314010402133,62.85966298797045L464.3292612391881,62.72959073397914L471.84538237435476,61.91541456366773L479.3615035095215,62.53110809132137L486.8776246446882,60.39767263621457L494.39374577985495,60.07458402563399L501.9098669150216,61.42660976649804L509.4259880501884,61.64891895998369L516.942109185355,60.53087869537525L524.4582303205218,60.44896078652858L531.9743514556884,59.590063948164875L539.4904725908552,59.22195240760822L547.006593726022,59.4427651703793L554.5227148611887,59.57525282803305L562.0388359963554,58.035253236724884L569.5549571315221,58.951585511374276L577.0710782666888,58.83886534557119L584.5871994018555,59.13929965196919L592.1033205370222,57.70006804994149L599.6194416721889,56.762915807551906L607.1355628073557,57.820116647981905L614.6516839425224,57.12939809107933L622.1678050776891,58.481685705150554L629.6839262128558,57.74717936890721L637.2000473480225,57.67454197303881L644.7161684831892,57.55734625434242L652.2322896183559,57.5606421043001L659.7484107535225,57.63623289545015L667.2645318886894,56.06209518427928L674.780653023856,57.25239771166606L682.2967741590228,57.37767297869422L689.8128952941894,56.86393188950721L697.3290164293562,56.92375364187241L704.8451375645228,57.10687325564255L712.3612586996896,57.36397158625562L719.8773798348562,58.69604308343137L727.3935009700231,57.43411410882297L734.9096221051898,57.633929379339314L742.4257432403565,58.19549822870214L749.9418643755231,58.164373132442314L757.4579855106898,56.967885575878576L764.9741066458566,56.98612585369528L772.4902277810233,57.43874970743823L780.00634891619,57.85755058203504L787.5224700513567,57.22547173268715L795.0385911865235,56.7726111419029L802.5547123216902,57.678707286240304L810.0708334568568,56.30841966227989L817.5869545920235,55.4862470879036L825.1030757271903,55.87630291738386L832.6191968623571,56.03672313389644L840.1353179975237,55.10238932734713L847.6514391326904,54.39456248106653L855.1675602678572,54.853225747404025L862.6836814030239,54.3922908954517L870.1998025381905,53.45321045370076L877.7159236733572,53.257828594527666L885.232044808524,53.655892447252334L892.7481659436908,54.04195732123802L900.2642870788574,53.022170465646134L907.7804082140241,53.514497569923364L915.2965293491909,54.54602664424465L922.8126504843576,53.250998778274564L930.3287716195242,53.21011487044744L937.8448927546909,53.48003765045316L945.3610138898578,54.230897567860616L952.8771350250245,53.6508275818481" fill="none"></path></g><g><path style="fill: none;" stroke="rgb(238, 51, 119)" stroke-width="2px" d="M215.0445769228254,384.6155916517368L221.308011202131,230.7107836073721L227.5714454814366,151.4786765685943L233.83487976074218,107.8725497490452L240.09831404004777,83.8307660564932L246.36174831935338,68.32665465991882L252.62518259865897,58.408253284208676L258.8886168779645,52.63927882558297L265.1520511572702,48.62284000215015L271.41548543657575,46.30245757982906L277.67891971588136,44.620532095165025L283.9423539951869,42.80291796692484L290.20578827449253,41.56652797114145L296.4692225537981,40.89896226215941L302.73265683310376,40.6458918845588L308.9960911124093,40.56772110140661L315.25952539171493,40.447206342568414L321.5229596710205,40.154052019568496L327.7863939503261,39.61009099545834L334.0498282296317,39.35734200570261L340.31326250893727,39.279310410501495L346.5766967882429,39.379719835760646L352.8401310675485,39.14551046347733L359.10356534685405,39.07859904082482L365.36699962615967,38.96483890223519L371.6304339054653,38.970196299794075L377.89386818477084,39.19425071396315L384.15730246407645,39.03423004121151L390.420736743382,39.15905756764363L396.6841710226876,39.013114193021856L402.9476053019932,38.85193489360415L409.21103958129885,38.53438746809106L415.47447386060446,38.343859022488076L421.73790813991,38.376768523501745L428.00134241921563,38.322900941813266L434.26477669852125,38.43780695641764L440.5282109778268,38.58036384617412L446.7916452571324,38.59228469834973L453.055079536438,38.30498408454249L459.3185138157436,38.279830278973016L465.58194809504914,38.264737995644154L471.84538237435476,38.25568262565155L478.1088166536603,38.176636122469404L484.3722509329659,37.98198165820271L490.63568521227154,38.01241554201575L496.8991194915772,38.25151571583713L503.16255377088277,38.468589101301326L509.4259880501884,38.37799328904726L515.6894223294939,38.397249082871625L521.9528566087995,38.40880255916631L528.2162908881052,38.415734644943L534.4797251674107,38.27266733405763L540.7431594467163,38.33405350987785L547.006593726022,38.297271934194484L553.2700280053275,38.27520298878443L559.5334622846331,38.0411217780118L565.7968965639386,37.9006730515482L572.0603308432443,38.25808350272321L578.32376512255,38.398916492252624L584.5871994018555,38.26257644244384L590.8506336811611,38.18077241255851L597.1140679604666,38.20530327580287L603.3775022397723,38.220021793749424L609.6409365190779,38.30246618569289L615.9043707983834,38.057479696156925L622.1678050776891,38.057714364786484L628.4312393569946,37.98424188478866L634.6946736363002,38.013771677965394L640.9581079156058,38.10510283504693L647.2215421949114,38.45435465399779L653.484976474217,38.516679183017416L659.7484107535225,38.92214030630658L666.0118450328282,38.944577136753715L672.2752793121338,39.76778532795235L678.5387135914394,40.33532352384702L684.802147870745,41.19113940961234L691.0655821500505,41.04210941049201L697.3290164293562,40.36378516161583L703.5924507086618,39.956790612290185L709.8558849879673,39.786207163870294L716.1193192672729,39.242177407765375L722.3827535465786,39.578279084681824L728.6461878258841,39.191033841427775L734.9096221051898,39.105913257826366L741.1730563844953,39.20206747001649L747.436490663801,38.89169359145305L753.6999249431065,38.41101613961307L759.9633592224121,38.19622294968454L766.2267935017177,38.28818687925393L772.4902277810233,38.122525393469076L778.7536620603288,38.46480818905108L785.0170963396345,38.52295130404938L791.2805306189401,38.26338404834636L797.5439648982457,38.32848353845103L803.8073991775514,38.29392995133836L810.0708334568568,38.19958451789526L816.3342677361625,38.21659053900486L822.597702015468,38.07956758931964L828.8611362947737,38.14458038185949" fill="none"></path></g><g><path style="fill: none;" stroke="rgb(255, 112, 67)" stroke-width="2px" d="M222.5606980579921,410.00794840517403L235.0875666166033,339.6336819790311L236.34025347246444,299.42812582191976L248.8671220310756,249.68310451849493L250.11980888693674,217.19891559466234L262.64667744554794,189.09121663792595L263.89936430140904,164.35192265952L276.4262328600202,144.78084598217453L277.67891971588136,129.2723839275649L290.20578827449253,119.26565565746955L291.45847513035363,110.10606701574937L303.9853436889648,104.76531821837293L305.23803054482596,100.60612592805434L317.76489910343713,96.86008356391983L319.01758595929823,96.23290096996107L331.54445451790946,93.35355358828546L332.79714137377056,89.78568814493215L345.3240099323818,86.32002051881766L346.5766967882429,84.24070103951973L359.10356534685405,82.69868154484435L360.3562522027152,81.110958075051L372.8831207613263,79.79026386807682L374.1358076171875,76.64221965424886L386.6626761757987,75.85759995514707L387.91536303165975,73.84094850539502L400.44223159027104,72.11566567185257L401.69491844613214,71.8902430410852L414.2217870047433,70.79801664893911L415.47447386060446,69.99545438630791L428.00134241921563,69.51391709686058L429.25402927507673,68.63608847019405L441.7808978336879,67.5204850547449L443.03358468954906,65.52608394199476L455.56045324816023,65.65448237111312L456.81314010402133,65.06900189305684L469.3400086626325,65.74829954882576L470.59269551849366,65.64058517129635L483.1195640771048,65.20789013856276L484.3722509329659,63.549620775836615L496.8991194915772,64.24776462690332L498.15180634743825,63.48883843818029L510.6786749060494,63.03348272508672L511.93136176191064,62.90749585964739L524.4582303205218,62.611063896852045L525.7109171763828,60.740099252086864L538.2377857349941,60.42726655822111L539.4904725908552,58.91452788072947L552.0173411494663,58.59579092365615L553.2700280053275,60.24488077881014L565.7968965639386,60.350975317788944L567.0495834197998,59.16320626119036L579.576451978411,58.818611233110374L580.829138834272,57.654881560980655L593.3560073928834,57.10387032005428L594.6086942487444,57.141329981376245L607.1355628073557,56.206833122887694L608.3882496632167,55.94058813249679L620.9151182218279,56.737813793543744L622.1678050776891,56.774469503118866L634.6946736363002,56.13394339828453L635.9473604921614,56.26492070361221L648.4742290507726,56.122667243282415L649.7269159066336,56.03731516708463L662.2537844652448,55.76526407783941L663.506471321106,55.602033424292316L676.0333398797171,54.17905597100513L677.2860267355783,53.472496061383836L689.8128952941894,53.41662652148847L691.0655821500505,53.23587823520024L703.5924507086618,53.86356207518238L704.8451375645228,53.79849269211854L717.3720061231342,53.90667762463135L718.6246929789952,55.37024092647341L731.1515615376064,55.65947265817471L732.4042483934675,54.80242576073858L744.9311169520786,55.02433043403182L746.1838038079397,54.86302011330573L758.710672366551,54.545394077343644L759.9633592224121,53.98675204988889L772.4902277810233,54.68215276987302L773.7429146368845,54.2896471089331L786.2697831954956,54.34859683707107L787.5224700513567,54.163126830427444L800.0493386099679,54.56713779466967L801.302025465829,54.14702484263556L813.8288940244402,52.496304729080705L815.0815808803013,52.38923203505371L827.6084494389125,51.29440248218054L828.8611362947737,51.66809068691357L841.3880048533848,50.788104392120964L842.6406917092461,50.996245427000375L855.1675602678572,52.29894254673596L856.4202471237182,52.123588163295885L868.9471156823294,51.429469283827835L870.1998025381905,50.79215811262058L882.7266710968017,50.99867765930014L883.9793579526629,50.53368313790393L896.5062265112741,50.181073143890735L897.7589133671353,51.22093292746624L910.2857819257464,50.96148942350556L911.5384687816074,50.65859675877813L924.0653373402188,50.69770100346821L925.3180241960798,51.16284323733512L937.8448927546909,51.368315296479906L939.0975796105521,50.46101259550976L951.6244481691633,51.830576285490565L952.8771350250245,51.54811528184668L965.4040035836356,50.71611914908084L966.6566904394967,51.173894124702734L979.183558998108,52.1110786406554L980.436245853969,51.790029976121L992.9631144125801,51.523787496224834L994.2158012684413,51.06958888358519L1006.7426698270525,50.35539002894854L1007.9953566829137,50.66300352792146L1020.5222252415248,50.405891940252175L1021.774912097386,50.251624987650644L1034.3017806559972,49.717385129036785L1035.554467511858,50.206587306798916L1048.0813360704694,49.83758908287674L1049.3340229263306,49.248123742646L1061.8608914849417,48.96805781968295L1063.1135783408029,50.78757685764348L1075.640446899414,50.25979609455889L1076.8931337552751,49.86951435553272L1089.4200023138865,50.44509140504738L1090.6726891697476,50.05430482300123L1103.1995577283587,49.598993030247094L1104.4522445842197,48.589673142839686L1116.979113142831,49.08828042802765L1118.2317999986922,50.12357761089539L1130.7586685573033,50.15584967121213L1132.0113554131644,48.85017384624318L1144.5382239717756,48.72928788184131L1145.7909108276367,48.58314302202476L1158.317779386248,49.37881548024067L1159.5704662421092,49.856218955170206L1172.0973348007203,50.805180570707336L1173.3500216565812,51.59539738355608L1185.8768902151924,51.40700794068595L1187.1295770710535,49.8953219326295L1199.6564456296649,50.16612282660352L1200.909132485526,49.96053695711049L1213.4360010441371,50.20525184129208L1214.6886878999983,50.27846749062554L1227.2155564586094,49.36542422494427L1228.4682433144706,48.89121154671103L1240.9951118730817,49.04836362682394L1242.2477987289428,48.40652206313671L1254.774667287554,49.56729602960977L1256.027354143415,49.74846744126525L1268.5542227020264,49.783557007083004L1269.8069095578876,49.80461074657363L1282.3337781164987,49.81724299026802L1283.5864649723599,49.30952936825614L1296.113333530971,48.78406135152264L1297.3660203868321,48.100714135605045L1309.8928889454432,49.75187767896828L1311.1455758013044,48.7550172132479L1323.6724443599155,49.70277983850101L1324.9251312157767,49.608917883073424L1337.451999774388,48.44840149218451L1338.7046866302492,48.70906431293259L1351.2315551888603,48.718235443030444L1352.4842420447212,48.87096468344008L1365.0111106033326,48.66814910298397L1366.2637974591937,48.62007303588578" fill="none"></path></g><g><path style="fill: none;" stroke="rgb(0, 153, 136)" stroke-width="2px" d="M230.4943814784459,392.95556198300534L235.92269118717738,346.36020848145694L241.3510008959089,307.79279679068594L246.7793106046404,281.31209925594834L252.20762031337193,259.9853071902039L257.6359300221035,242.217404765224L263.06423973083497,223.20320199989314L268.49254943956646,206.37965931100848L273.92085914829795,191.81271930190573L279.3491688570295,180.57992668706092L284.77747856576104,168.76418161516796L290.20578827449253,163.00370412509338L295.6340979832241,156.67705386867308L301.06240769195557,148.68536594288153L306.49071740068706,145.6576990772684L311.9190271094186,142.51612952981088L317.3473368181501,138.4228144319805L322.77564652688164,134.27375509047116L328.20395623561313,127.95643358526874L333.6322659443447,124.31329987173858L339.06057565307617,122.8635655962959L344.48888536180766,119.04919139902154L349.9171950705392,115.06746384498607L355.3455047792707,114.44514975387693L360.77381448800224,111.42168244503694L366.20212419673373,108.06172352626454L371.6304339054653,107.73885434201004L377.05874361419677,106.73538670149107L382.4870533229283,104.51381390509681L387.91536303165975,101.56137806289324L393.3436727403913,101.4094088254102L398.77198244912285,101.68629369426625L404.2002921578544,99.20234647503379L409.6286018665859,96.01887268000952L415.0569115753174,95.36021419333179L420.48522128404886,92.46216753895172L425.9135309927804,92.26921845472832L431.34184070151196,91.85899587944962L436.77015041024345,91.76008889680223L442.19846011897494,92.28965095673803L447.6267698277064,94.15326709748688L453.055079536438,91.07547975454742L458.4833892451695,89.44964719244135L463.91169895390107,89.21028046698801L469.3400086626325,89.65556668113143L474.76831837136405,87.19904700609825L480.19662808009554,86.24042816932207L485.6249377888271,86.40138967901646L491.05324749755863,88.04384548952065L496.48155720629006,85.1278150735163L501.9098669150216,84.26155619802205L507.33817662375316,84.55154696565656L512.7664863324846,83.1796625215515L518.1947960412163,82.79821154214157L523.6231057499476,82.05404798626725L529.0514154586792,82.63813578919968L534.4797251674107,84.53446737564454L539.9080348761422,83.9055475792996L545.3363445848738,84.33794179442296L550.7646542936052,84.45015176114605L556.1929640023368,82.309079305915L561.6212737110683,81.53972880100484L567.0495834197998,80.48921224865487L572.4778931285314,79.2699960678409L577.9062028372628,79.64266557698494L583.3345125459944,79.27736103306735L588.7628222547258,79.64708455612077L594.1911319634575,80.67866476288333L599.6194416721889,80.2670269504838L605.0477513809204,81.34508332420317L610.4760610896519,81.47662418020623L615.9043707983834,81.6291619749836L621.332680507115,81.1317784024461L626.7609902158465,81.42225450832751L632.189299924578,81.67015345303189L637.6176096333095,80.93553344574852L643.045919342041,79.75862862962359L648.4742290507726,78.09551308466718L653.9025387595041,76.14067110241186L659.3308484682356,77.61784403537652L664.759158176967,77.69440170222482L670.1874678856985,77.66672302115829L675.6157775944301,76.69314315723699L681.0440873031616,74.63672961537434L686.4723970118931,75.3904400819951L691.9007067206246,75.98989292431862L697.3290164293562,76.64401775441468L702.7573261380877,76.07951999719083L708.1856358468192,76.55056743578696L713.6139455555507,76.46512949306717L719.0422552642822,75.97218704038231L724.4705649730138,75.16112860054291L729.8988746817453,74.01197400605994L735.3271843904768,73.10164140584361L740.7554940992084,72.4818285645383L746.1838038079397,73.28775335856308" fill="none"></path></g></g></g></g><g opacity="0.2"><g><g><g><path style="fill: none;" stroke="rgb(187, 187, 187)" stroke-width="2px" d="M216.2972637786865,510.10323190558705L223.8133849138532,325.1498629521579L231.32950604901995,214.36187478303913L238.84562718418667,169.0897068601102L246.36174831935338,150.31832016035918L253.8778694545201,133.3872654899955L261.3939905896868,120.8730076901615L268.9101117248535,109.27891590502117L276.4262328600202,108.9108494991437L283.9423539951869,105.23018544036898L291.45847513035363,96.58062490224842L298.97459626552035,88.66719717588279L306.49071740068706,89.219296784699L314.0068385358538,81.30586905833337L321.5229596710205,85.35459952298555L329.0390808061872,80.3857030436397L336.5552019413539,79.83360343482349L344.0713230765206,80.3857030436397L351.58744421168734,77.07310539074246L359.10356534685405,70.81597649082545L366.61968648202077,73.02437492609027L374.1358076171875,67.50337883792821L381.6519287523542,69.34371086731556L389.1680498875209,70.44791008494798L396.6841710226876,67.50337883792821L404.2002921578544,65.84708001147959L411.71641329302105,68.60757805556062L419.2325344281878,62.16641595270488L426.7486555633545,67.13531243205074L434.26477669852125,62.90254876445982L441.7808978336879,64.92691399678591L449.2970189688547,64.55884759090844L456.81314010402133,59.958017517440055L464.3292612391881,62.53448235858235L471.84538237435476,60.694150329195L479.3615035095215,63.45464837327603L486.8776246446882,57.19751947335902L494.39374577985495,59.589951111562584L501.9098669150216,63.45464837327603L509.4259880501884,61.982382749766145L516.942109185355,58.85381829980764L524.4582303205218,60.326083923317526L531.9743514556884,58.301718690991436L539.4904725908552,58.66978509686891L547.006593726022,59.77398431450132L554.5227148611887,59.77398431450132L562.0388359963554,55.72525384984914L569.5549571315221,60.326083923317526L577.0710782666888,58.66978509686891L584.5871994018555,59.589951111562584L592.1033205370222,55.5412206469104L599.6194416721889,55.35718744397167L607.1355628073557,59.40591790862385L614.6516839425224,56.09332025572661L622.1678050776891,60.51011712625626L629.6839262128558,56.645419864542816L637.2000473480225,57.565585879236494L644.7161684831892,57.38155267629776L652.2322896183559,57.565585879236494L659.7484107535225,57.74961908217523L667.2645318886894,53.70088861752305L674.780653023856,59.03785150274638L682.2967741590228,57.565585879236494L689.8128952941894,56.09332025572661L697.3290164293562,57.01348627042029L704.8451375645228,57.38155267629776L712.3612586996896,57.74961908217523L719.8773798348562,60.694150329195L727.3935009700231,55.5412206469104L734.9096221051898,57.933652285113965L742.4257432403565,59.03785150274638L749.9418643755231,58.1176854880527L757.4579855106898,55.17315424103293L764.9741066458566,57.01348627042029L772.4902277810233,58.1176854880527L780.00634891619,58.48575189393017L787.5224700513567,56.277353458665345L795.0385911865235,56.09332025572661L802.5547123216902,59.03785150274638L810.0708334568568,54.252988226339255L817.5869545920235,54.252988226339255L825.1030757271903,56.46138666160408L832.6191968623571,56.277353458665345L840.1353179975237,53.70088861752305L847.6514391326904,53.33282221164558L855.1675602678572,55.5412206469104L862.6836814030239,53.70088861752305L870.1998025381905,52.04458979107443L877.7159236733572,52.96475580576811L885.232044808524,54.252988226339255L892.7481659436908,54.621054632216726L900.2642870788574,51.49249018225822L907.7804082140241,54.252988226339255L915.2965293491909,56.09332025572661L922.8126504843576,51.30845697931949L930.3287716195242,53.14878900870684L937.8448927546909,53.884921820461784L945.3610138898578,55.35718744397167L952.8771350250245,52.78072260282937" fill="none"></path></g><g><path style="fill: none;" stroke="rgb(238, 51, 119)" stroke-width="2px" d="M208.7811426435198,724.5019133292138L215.0445769228254,180.68379864525053L221.308011202131,82.96216788478199L227.5714454814366,58.301718690991436L233.83487976074218,50.940390573442016L240.09831404004777,50.572324167564545L246.36174831935338,46.155527297034894L252.62518259865897,43.94712886177007L258.8886168779645,44.1311620647088L265.1520511572702,42.65889644119892L271.41548543657575,42.842929644137655L277.67891971588136,42.10679683238271L283.9423539951869,40.08243160005662L290.20578827449253,39.71436519417915L296.4692225537981,39.89839839711789L302.73265683310376,40.26646480299536L308.9960911124093,40.450498005934094L315.25952539171493,40.26646480299536L321.5229596710205,39.71436519417915L327.7863939503261,38.794199179485474L334.0498282296317,38.97823238242421L340.31326250893727,39.162265585362945L346.5766967882429,39.530331991240416L352.8401310675485,38.794199179485474L359.10356534685405,38.97823238242421L365.36699962615967,38.794199179485474L371.6304339054653,38.97823238242421L377.89386818477084,39.530331991240416L384.15730246407645,38.794199179485474L390.420736743382,39.34629878830168L396.6841710226876,38.794199179485474L402.9476053019932,38.61016597654674L409.21103958129885,38.05806636773053L415.47447386060446,38.05806636773053L421.73790813991,38.426132773608L428.00134241921563,38.24209957066927L434.26477669852125,38.61016597654674L440.5282109778268,38.794199179485474L446.7916452571324,38.61016597654674L453.055079536438,37.8740331647918L459.3185138157436,38.24209957066927L465.58194809504914,38.24209957066927L471.84538237435476,38.24209957066927L478.1088166536603,38.05806636773053L484.3722509329659,37.68999996185306L490.63568521227154,38.05806636773053L496.8991194915772,38.61016597654674L503.16255377088277,38.794199179485474L509.4259880501884,38.24209957066927L515.6894223294939,38.426132773608L521.9528566087995,38.426132773608L528.2162908881052,38.426132773608L534.4797251674107,38.05806636773053L540.7431594467163,38.426132773608L547.006593726022,38.24209957066927L553.2700280053275,38.24209957066927L559.5334622846331,37.68999996185306L565.7968965639386,37.68999996185306L572.0603308432443,38.794199179485474L578.32376512255,38.61016597654674L584.5871994018555,38.05806636773053L590.8506336811611,38.05806636773053L597.1140679604666,38.24209957066927L603.3775022397723,38.24209957066927L609.6409365190779,38.426132773608L615.9043707983834,37.68999996185306L622.1678050776891,38.05806636773053L628.4312393569946,37.8740331647918L634.6946736363002,38.05806636773053L640.9581079156058,38.24209957066927L647.2215421949114,38.97823238242421L653.484976474217,38.61016597654674L659.7484107535225,39.530331991240416L666.0118450328282,38.97823238242421L672.2752793121338,41.0025976147503L678.5387135914394,41.186630817689036L684.802147870745,42.474863238260184L691.0655821500505,40.818564411811565L697.3290164293562,39.34629878830168L703.5924507086618,39.34629878830168L709.8558849879673,39.530331991240416L716.1193192672729,38.426132773608L722.3827535465786,40.08243160005662L728.6461878258841,38.61016597654674L734.9096221051898,38.97823238242421L741.1730563844953,39.34629878830168L747.436490663801,38.426132773608L753.6999249431065,37.68999996185306L759.9633592224121,37.8740331647918L766.2267935017177,38.426132773608L772.4902277810233,37.8740331647918L778.7536620603288,38.97823238242421L785.0170963396345,38.61016597654674L791.2805306189401,37.8740331647918L797.5439648982457,38.426132773608L803.8073991775514,38.24209957066927L810.0708334568568,38.05806636773053L816.3342677361625,38.24209957066927L822.597702015468,37.8740331647918L828.8611362947737,38.24209957066927" fill="none"></path></g><g><path style="fill: none;" stroke="rgb(255, 112, 67)" stroke-width="2px" d="M208.7811426435198,777.1354093696922L221.308011202131,313.3717379640788L222.5606980579921,335.82378872260455L235.0875666166033,256.873544661887L236.34025347246444,246.9357517031953L248.8671220310756,180.86783184818927L250.11980888693674,170.74600568655882L262.64667744554794,148.10992172509435L263.89936430140904,127.86626940183345L276.4262328600202,115.72007800787691L277.67891971588136,106.15035145506266L290.20578827449253,104.3100194256753L291.45847513035363,96.39659169930968L303.9853436889648,96.76465810518715L305.23803054482596,94.37222646698359L317.76489910343713,91.24366201702509L319.01758595929823,95.29239248167727L331.54445451790946,89.03526358176026L332.79714137377056,84.43443350829187L345.3240099323818,81.12183585539464L346.5766967882429,81.12183585539464L359.10356534685405,80.3857030436397L360.3562522027152,78.72940421719107L372.8831207613263,77.8092382024974L374.1358076171875,71.92017570845786L386.6626761757987,74.6806737525389L387.91536303165975,70.81597649082545L400.44223159027104,69.5277440702543L401.69491844613214,71.55210930258039L414.2217870047433,69.15967766437683L415.47447386060446,68.79161125849936L428.00134241921563,68.79161125849936L429.25402927507673,67.31934563498947L441.7808978336879,65.84708001147959L443.03358468954906,62.53448235858235L455.56045324816023,65.84708001147959L456.81314010402133,64.19078118503097L469.3400086626325,66.76724602617327L470.59269551849366,65.47901360560212L483.1195640771048,64.55884759090844L484.3722509329659,61.06221673507247L496.8991194915772,65.29498040266338L498.15180634743825,62.35044915564362L510.6786749060494,62.35044915564362L511.93136176191064,62.71851556152109L524.4582303205218,62.16641595270488L525.7109171763828,57.933652285113965L538.2377857349941,59.958017517440055L539.4904725908552,56.645419864542816L552.0173411494663,58.1176854880527L553.2700280053275,62.71851556152109L565.7968965639386,60.51011712625626L567.0495834197998,57.38155267629776L579.576451978411,58.301718690991436L580.829138834272,55.909287052787874L593.3560073928834,56.277353458665345L594.6086942487444,57.19751947335902L607.1355628073557,54.80508783515546L608.3882496632167,55.5412206469104L620.9151182218279,57.933652285113965L622.1678050776891,56.82945306748155L634.6946736363002,55.17315424103293L635.9473604921614,56.46138666160408L648.4742290507726,55.909287052787874L649.7269159066336,55.909287052787874L662.2537844652448,55.35718744397167L663.506471321106,55.35718744397167L676.0333398797171,52.04458979107443L677.2860267355783,52.4126561969519L689.8128952941894,53.33282221164558L691.0655821500505,52.96475580576811L703.5924507086618,54.80508783515546L704.8451375645228,53.70088861752305L717.3720061231342,54.06895502340052L718.6246929789952,57.565585879236494L731.1515615376064,56.09332025572661L732.4042483934675,53.51685541458431L744.9311169520786,55.35718744397167L746.1838038079397,54.621054632216726L758.710672366551,54.06895502340052L759.9633592224121,53.14878900870684L772.4902277810233,55.72525384984914L773.7429146368845,53.70088861752305L786.2697831954956,54.43702142927799L787.5224700513567,53.884921820461784L800.0493386099679,55.17315424103293L801.302025465829,53.51685541458431L813.8288940244402,50.02022455874834L815.0815808803013,52.228622994013165L827.6084494389125,49.65215815287087L828.8611362947737,52.228622994013165L841.3880048533848,49.46812494993213L842.6406917092461,51.30845697931949L855.1675602678572,54.252988226339255L856.4202471237182,51.860556588135694L868.9471156823294,50.38829096462581L870.1998025381905,49.8361913558096L882.7266710968017,51.30845697931949L883.9793579526629,49.8361913558096L896.5062265112741,49.65215815287087L897.7589133671353,52.78072260282937L910.2857819257464,50.572324167564545L911.5384687816074,50.204257761687074L924.0653373402188,50.75635737050328L925.3180241960798,51.860556588135694L937.8448927546909,51.67652338519696L939.0975796105521,49.10005854405466L951.6244481691633,53.884921820461784L952.8771350250245,51.12442377638075L965.4040035836356,49.46812494993213L966.6566904394967,51.860556588135694L979.183558998108,53.51685541458431L980.436245853969,51.30845697931949L992.9631144125801,51.12442377638075L994.2158012684413,50.38829096462581L1006.7426698270525,49.2840917469934L1007.9953566829137,51.12442377638075L1020.5222252415248,50.02022455874834L1021.774912097386,50.02022455874834L1034.3017806559972,48.916025341115926L1035.554467511858,50.940390573442016L1048.0813360704694,49.2840917469934L1049.3340229263306,48.36392573229972L1061.8608914849417,48.547958935238455L1063.1135783408029,53.51685541458431L1075.640446899414,49.46812494993213L1076.8931337552751,49.2840917469934L1089.4200023138865,51.30845697931949L1090.6726891697476,49.46812494993213L1103.1995577283587,48.916025341115926L1104.4522445842197,47.07569331172857L1116.979113142831,49.8361913558096L1118.2317999986922,51.67652338519696L1130.7586685573033,50.204257761687074L1132.0113554131644,46.891660108789836L1144.5382239717756,48.547958935238455L1145.7909108276367,48.36392573229972L1158.317779386248,50.572324167564545L1159.5704662421092,50.572324167564545L1172.0973348007203,52.228622994013165L1173.3500216565812,52.78072260282937L1185.8768902151924,51.12442377638075L1187.1295770710535,47.62779292054478L1199.6564456296649,50.572324167564545L1200.909132485526,49.65215815287087L1213.4360010441371,50.572324167564545L1214.6886878999983,50.38829096462581L1227.2155564586094,47.99585932642225L1228.4682433144706,48.179892529360984L1240.9951118730817,49.2840917469934L1242.2477987289428,47.44375971760604L1254.774667287554,51.30845697931949L1256.027354143415,50.02022455874834L1268.5542227020264,49.8361913558096L1269.8069095578876,49.8361913558096L1282.3337781164987,49.8361913558096L1283.5864649723599,48.547958935238455L1296.113333530971,47.99585932642225L1297.3660203868321,47.07569331172857L1309.8928889454432,52.228622994013165L1311.1455758013044,47.25972651466731L1323.6724443599155,51.12442377638075L1324.9251312157767,49.46812494993213L1337.451999774388,46.7076269058511L1338.7046866302492,49.10005854405466L1351.2315551888603,48.73199213817719L1352.4842420447212,49.10005854405466L1365.0111106033326,48.36392573229972L1366.2637974591937,48.547958935238455" fill="none"></path></g><g><path style="fill: none;" stroke="rgb(0, 153, 136)" stroke-width="2px" d="M219.63776206098282,457.4697358651087L225.06607176971434,376.31109336912635L230.4943814784459,310.42720671705905L235.92269118717738,281.90206026155505L241.3510008959089,252.6407809942961L246.7793106046404,242.7029880356044L252.20762031337193,228.53243140932176L257.6359300221035,215.834140406549L263.06423973083497,194.85435527153317L268.49254943956646,181.23589825406674L273.92085914829795,170.00987287480388L279.3491688570295,163.75274397488687L284.77747856576104,151.05445297211412L290.20578827449253,154.36705062501136L295.6340979832241,147.18975571040068L301.06240769195557,136.69986314289275L306.49071740068706,141.1166600134224L311.9190271094186,137.80406236052517L317.3473368181501,132.2830662723631L322.77564652688164,128.05030260477218L328.20395623561313,118.48057605195794L333.6322659443447,118.84864245783541L339.06057565307617,120.68897448722277L344.48888536180766,113.32764636967335L349.9171950705392,109.09488270208243L355.3455047792707,113.51167957261208L360.77381448800224,106.8864842668176L366.20212419673373,103.02178700510416L371.6304339054653,107.25455067269507L377.05874361419677,105.23018544036898L382.4870533229283,101.1814549757168L387.91536303165975,97.13272451106462L393.3436727403913,101.1814549757168L398.77198244912285,102.10162099041048L404.2002921578544,95.476425684616L409.6286018665859,91.24366201702509L415.0569115753174,94.37222646698359L420.48522128404886,88.11509756706658L425.9135309927804,91.97979482878003L431.34184070151196,91.24366201702509L436.77015041024345,91.61172842290256L442.19846011897494,93.08399404641244L447.6267698277064,96.94869130812589L453.055079536438,86.45879874061796L458.4833892451695,87.01089834943417L463.91169895390107,88.85123037882153L469.3400086626325,90.32349600233141L474.76831837136405,83.5142674935982L480.19662808009554,84.80249991416935L485.6249377888271,86.6428319435567L491.05324749755863,90.50752920527015L496.48155720629006,80.75376944951716L501.9098669150216,82.96216788478199L507.33817662375316,84.98653311710808L512.7664863324846,81.12183585539464L518.1947960412163,82.22603507302705L523.6231057499476,80.9378026524559L529.0514154586792,83.5142674935982L534.4797251674107,87.37896475531164L539.9080348761422,82.96216788478199L545.3363445848738,84.98653311710808L550.7646542936052,84.61846671123061L556.1929640023368,79.09747062306855L561.6212737110683,80.3857030436397L567.0495834197998,78.91343742012981L572.4778931285314,77.44117179661993L577.9062028372628,80.20166984070096L583.3345125459944,78.72940421719107L588.7628222547258,80.20166984070096L594.1911319634575,82.22603507302705L599.6194416721889,79.64957023188475L605.0477513809204,82.96216788478199L610.4760610896519,81.67393546421084L615.9043707983834,81.85796866714958L621.332680507115,80.3857030436397L626.7609902158465,81.85796866714958L632.189299924578,82.04200187008831L637.6176096333095,79.83360343482349L643.045919342041,77.99327140543613L648.4742290507726,75.60083976723257L653.9025387595041,73.20840812902901L659.3308484682356,79.83360343482349L664.759158176967,77.8092382024974L670.1874678856985,77.62520499955866L675.6157775944301,75.2327733613551L681.0440873031616,71.55210930258039L686.4723970118931,76.52100578192625L691.9007067206246,76.88907218780372L697.3290164293562,77.62520499955866L702.7573261380877,75.2327733613551L708.1856358468192,77.25713859368119L713.6139455555507,76.33697257898751L719.0422552642822,75.2327733613551L724.4705649730138,73.94454094078395L729.8988746817453,72.28824211433533L735.3271843904768,71.73614250551913L740.7554940992084,71.55210930258039L746.1838038079397,74.49664054960016" fill="none"></path></g></g></g></g></g></g><g transform="translate(51, 376)" clip-path="url(#clip_1)"><clipPath id="clip_1"><rect width="1461" height="23"></rect></clipPath><g><g><line x1="0" y1="0" x2="0" y2="5" style="visibility: inherit;" fill="rgb(0, 0, 0)" stroke="rgb(204, 204, 204)" stroke-width="1px"></line><line x1="208.7811426435198" y1="0" x2="208.7811426435198" y2="5" style="visibility: inherit;" fill="rgb(0, 0, 0)" stroke="rgb(204, 204, 204)" stroke-width="1px"></line><line x1="417.5622852870396" y1="0" x2="417.5622852870396" y2="5" style="visibility: inherit;" fill="rgb(0, 0, 0)" stroke="rgb(204, 204, 204)" stroke-width="1px"></line><line x1="626.3434279305594" y1="0" x2="626.3434279305594" y2="5" style="visibility: inherit;" fill="rgb(0, 0, 0)" stroke="rgb(204, 204, 204)" stroke-width="1px"></line><line x1="835.1245705740791" y1="0" x2="835.1245705740791" y2="5" style="visibility: inherit;" fill="rgb(0, 0, 0)" stroke="rgb(204, 204, 204)" stroke-width="1px"></line><line x1="1043.905713217599" y1="0" x2="1043.905713217599" y2="5" style="visibility: inherit;" fill="rgb(0, 0, 0)" stroke="rgb(204, 204, 204)" stroke-width="1px"></line><line x1="1252.6868558611188" y1="0" x2="1252.6868558611188" y2="5" style="visibility: inherit;" fill="rgb(0, 0, 0)" stroke="rgb(204, 204, 204)" stroke-width="1px"></line><line x1="1461.4679985046387" y1="0" x2="1461.4679985046387" y2="5" style="visibility: inherit;" fill="rgb(0, 0, 0)" stroke="rgb(204, 204, 204)" stroke-width="1px"></line></g><g transform="translate(0, 8)"><text style="text-anchor: middle; visibility: hidden; font-family: Roboto, sans-serif; font-size: 12px; font-weight: 200;" x="0" y="0" dx="0em" dy="0.95em" fill="rgb(33, 33, 33)" stroke="none" stroke-width="1px">-500</text><text style="text-anchor: middle; visibility: inherit; font-family: Roboto, sans-serif; font-size: 12px; font-weight: 200;" x="208.7811426435198" y="0" dx="0em" dy="0.95em" fill="rgb(33, 33, 33)" stroke="none" stroke-width="1px">0</text><text style="text-anchor: middle; visibility: inherit; font-family: Roboto, sans-serif; font-size: 12px; font-weight: 200;" x="417.5622852870396" y="0" dx="0em" dy="0.95em" fill="rgb(33, 33, 33)" stroke="none" stroke-width="1px">500</text><text style="text-anchor: middle; visibility: inherit; font-family: Roboto, sans-serif; font-size: 12px; font-weight: 200;" x="626.3434279305594" y="0" dx="0em" dy="0.95em" fill="rgb(33, 33, 33)" stroke="none" stroke-width="1px">1k</text><text style="text-anchor: middle; visibility: inherit; font-family: Roboto, sans-serif; font-size: 12px; font-weight: 200;" x="835.1245705740791" y="0" dx="0em" dy="0.95em" fill="rgb(33, 33, 33)" stroke="none" stroke-width="1px">1.5k</text><text style="text-anchor: middle; visibility: inherit; font-family: Roboto, sans-serif; font-size: 12px; font-weight: 200;" x="1043.905713217599" y="0" dx="0em" dy="0.95em" fill="rgb(33, 33, 33)" stroke="none" stroke-width="1px">2k</text><text style="text-anchor: middle; visibility: inherit; font-family: Roboto, sans-serif; font-size: 12px; font-weight: 200;" x="1252.6868558611188" y="0" dx="0em" dy="0.95em" fill="rgb(33, 33, 33)" stroke="none" stroke-width="1px">2.5k</text><text style="text-anchor: middle; visibility: hidden; font-family: Roboto, sans-serif; font-size: 12px; font-weight: 200;" x="1461.4679985046387" y="0" dx="0em" dy="0.95em" fill="rgb(33, 33, 33)" stroke="none" stroke-width="1px">3k</text></g><line x1="0" y1="0" x2="1461.4679985046387" y2="0" fill="rgb(0, 0, 0)" stroke="rgb(204, 204, 204)" stroke-width="1px"></line></g></g></g></g></svg>